<?xml version="1.0" standalone="no"?>
<!DOCTYPE svg PUBLIC "-//W3C//DTD SVG 20010904//EN"
 "http://www.w3.org/TR/2001/REC-SVG-20010904/DTD/svg10.dtd">
<svg version="1.0" xmlns="http://www.w3.org/2000/svg"
 width="120.000000pt" height="120.000000pt" viewBox="0 0 120.000000 120.000000"
 preserveAspectRatio="xMidYMid meet">
<metadata>
Created by potrace 1.14, written by Peter Selinger 2001-2017
</metadata>
<g transform="translate(0.000000,120.000000) scale(0.100000,-0.100000)"
fill="#000000" stroke="none">
<path d="M683 1086 c-16 -20 -51 -74 -77 -121 -26 -47 -90 -142 -142 -212
-118 -156 -135 -192 -135 -286 0 -73 43 -178 83 -204 23 -14 -54 -20 -104 -7
-110 28 -163 116 -123 204 10 22 21 40 24 40 3 0 17 10 31 21 24 20 24 20 -15
-1 -74 -39 -113 -139 -86 -221 16 -50 69 -104 131 -136 49 -25 65 -28 150 -27
76 0 106 5 150 24 166 70 260 205 248 354 -5 52 -19 91 -79 219 l-74 155 -22
-43 -22 -43 24 -83 c45 -148 29 -268 -47 -354 -38 -44 -41 -45 -59 -29 -10 9
-30 39 -43 66 -37 74 -30 135 25 246 24 48 47 89 50 92 23 18 83 154 113 255
19 66 33 121 31 123 -1 2 -16 -13 -32 -32z"/>
<path d="M820 925 c-1 -11 -3 -33 -5 -50 -5 -40 18 -119 59 -208 46 -97 56
-131 56 -186 -1 -61 -29 -121 -76 -159 -146 -119 -183 -152 -175 -156 5 -3 36
-4 69 -2 154 11 288 148 281 289 -3 68 -28 124 -97 222 -81 114 -95 141 -102
209 -4 34 -8 52 -10 41z"/>
</g>
</svg>
